<svg xmlns="http://www.w3.org/2000/svg" version="1.1" xmlns:xlink="http://www.w3.org/1999/xlink" xmlns:svgjs="http://svgjs.dev/svgjs" width="1000" height="1000" viewBox="0 0 1000 1000"><rect width="1000" height="1000" fill="#071f58"></rect><g transform="matrix(0.7,0,0,0.7,150.00008034241097,106.25)"><svg viewBox="0 0 320 360" data-background-color="#071f58" preserveAspectRatio="xMidYMid meet" height="1125" width="1000" xmlns="http://www.w3.org/2000/svg" xmlns:xlink="http://www.w3.org/1999/xlink"><g id="tight-bounds" transform="matrix(1,0,0,1,-0.00003672795929787753,0)"><svg viewBox="0 0 320 360" height="360" width="320"><g><svg></svg></g><g><svg viewBox="0 0 320 360" height="360" width="320"><g><path transform="translate(-32.1528,-12.1528) scale(3.84303,3.84303)" d="M88.492 50l1.711-2.963c2.946-5.102 1.198-11.626-3.904-14.572l-2.963-1.711v-3.422c0-5.891-4.776-10.667-10.667-10.667h-3.422l-1.711-2.963c-2.946-5.102-9.47-6.85-14.572-3.904l-2.964 1.71-2.963-1.711c-5.102-2.945-11.626-1.197-14.572 3.905l-1.711 2.963h-3.422c-5.891 0-10.667 4.776-10.667 10.667v3.422l-2.963 1.711c-5.102 2.946-6.85 9.47-3.904 14.572l1.71 2.963-1.711 2.963c-2.945 5.102-1.197 11.626 3.905 14.572l2.963 1.711v3.422c0 5.891 4.776 10.667 10.667 10.667h3.422l1.711 2.963c2.946 5.102 9.47 6.85 14.572 3.904l2.963-1.71 2.963 1.711c5.102 2.946 11.626 1.198 14.572-3.904l1.711-2.963h3.422c5.891 0 10.667-4.776 10.667-10.667v-3.422l2.963-1.711c5.102-2.946 6.85-9.47 3.904-14.572zM85.832 33.273c2.252 1.3 3.862 3.399 4.535 5.91 0.673 2.511 0.328 5.135-0.972 7.386l-1.441 2.497-4.618-7.999v-9.236zM73.72 73.72l-15.038 8.682h-17.364l-15.038-8.682-8.682-15.038v-17.364l8.682-15.038 15.038-8.682h17.364l15.038 8.682 8.682 15.038v17.364zM82.401 60.549v8.158l-7.065 4.079zM72.786 75.336l-4.079 7.065h-8.158zM57.065 83.335l-7.065 4.079-7.065-4.079zM39.451 82.401h-8.158l-4.079-7.065zM24.664 72.786l-7.065-4.079v-8.158zM16.665 57.065l-4.079-7.065 4.079-7.065zM17.599 39.451v-8.158l7.065-4.079zM27.214 24.664l4.079-7.065h8.158zM42.935 16.665l7.065-4.079 7.065 4.079zM60.549 17.599h8.158l4.079 7.065zM75.336 27.214l7.065 4.079v8.158zM83.335 42.935l4.079 7.065-4.079 7.065zM72.668 17.599c2.6 0 5.044 1.012 6.883 2.851 1.838 1.838 2.851 4.283 2.851 6.883v2.883l-7.999-4.618-4.618-7.999zM53.43 10.606c2.252-1.3 4.875-1.645 7.386-0.972 2.511 0.673 4.61 2.284 5.91 4.535l1.441 2.497h-9.236l-7.999-4.618zM33.273 14.168c1.3-2.252 3.399-3.862 5.91-4.535 2.511-0.673 5.135-0.328 7.386 0.972l2.497 1.441-7.999 4.618h-9.236zM17.599 27.332c0-2.6 1.012-5.044 2.851-6.883 1.838-1.838 4.283-2.851 6.883-2.851h2.883l-4.618 7.999-7.999 4.618zM10.606 46.57c-1.3-2.252-1.645-4.875-0.972-7.386 0.673-2.511 2.284-4.61 4.535-5.91l2.497-1.441v9.236l-4.618 7.999zM14.168 66.727c-2.252-1.3-3.862-3.399-4.535-5.91-0.673-2.511-0.328-5.135 0.972-7.386l1.441-2.497 4.618 7.999v9.236zM27.332 82.401c-2.6 0-5.044-1.012-6.883-2.851-1.838-1.838-2.851-4.283-2.851-6.883v-2.883l7.999 4.618 4.618 7.999zM46.57 89.394c-2.252 1.3-4.875 1.645-7.386 0.972-2.511-0.673-4.61-2.284-5.91-4.535l-1.441-2.497h9.236l7.999 4.618zM66.727 85.832c-1.3 2.252-3.399 3.862-5.91 4.535-2.511 0.673-5.135 0.328-7.386-0.972l-2.497-1.441 7.999-4.618h9.236zM82.401 72.668c0 2.6-1.012 5.044-2.851 6.883-1.838 1.838-4.283 2.851-6.883 2.851h-2.883l4.618-7.999 7.999-4.618zM90.367 60.816c-0.673 2.511-2.284 4.61-4.535 5.91l-2.497 1.441v-9.236l4.618-7.999 1.441 2.497c1.3 2.253 1.646 4.876 0.973 7.387z" fill="#ffe700" fill-rule="nonzero" stroke="none" stroke-width="1" stroke-linecap="butt" stroke-linejoin="miter" stroke-miterlimit="10" stroke-dasharray="" stroke-dashoffset="0" font-family="none" font-weight="none" font-size="none" text-anchor="none" style="mix-blend-mode: normal" data-fill-palette-color="tertiary"></path></g><g transform="matrix(1,0,0,1,64.00000000000001,146.5288788731023)"><svg viewBox="0 0 191.99999999999997 66.94224225379543" height="66.94224225379543" width="191.99999999999997"><g><svg viewBox="0 0 313.42475526394674 109.2778952875816" height="66.94224225379543" width="191.99999999999997"><g transform="matrix(1,0,0,1,121.42475526394672,0)"><svg viewBox="0 0 192 109.2778952875816" height="109.2778952875816" width="192"><g id="textblocktransform"><svg viewBox="0 0 192 109.2778952875816" height="109.2778952875816" width="192" id="textblock"><g><svg viewBox="0 0 192 73.29891756869276" height="73.29891756869276" width="192"><g transform="matrix(1,0,0,1,0,0)"><svg width="192" viewBox="-0.65 -35 120.09 45.849999999999994" height="73.29891756869276" data-palette-color="#ffe700"><path d="M22.4 4.5L22.4 10.85-0.65 10.85-0.65 4.5 22.4 4.5ZM42.75-27.95L37.1-27.95 37.1-6.35 42.75-6.35 42.75 0 23.4 0 23.4-6.35 29-6.35 29-27.95 23.4-27.95 23.4-34.3 42.75-34.3 42.75-27.95ZM75.45-12.4L80.65-8.15Q77.9-3.95 73.82-1.65 69.75 0.65 64.45 0.65L64.45 0.65Q59.25 0.65 54.95-1.7 50.65-4.05 48.17-8.1 45.7-12.15 45.7-17.05L45.7-17.05Q45.7-22.25 48-26.35 50.3-30.45 54.2-32.73 58.09-35 62.65-35L62.65-35Q68.55-35 72.45-31.35L72.45-31.35 72.45-34.3 79.69-34.3 79.69-22.35 74.34-21.85Q72.95-24.85 70.34-26.75 67.75-28.65 63.95-28.65L63.95-28.65Q61.4-28.65 59.15-27.28 56.9-25.9 55.52-23.3 54.15-20.7 54.15-17.15L54.15-17.15Q54.15-14.05 55.52-11.48 56.9-8.9 59.25-7.4 61.59-5.9 64.45-5.9L64.45-5.9Q68.25-5.9 70.75-7.53 73.25-9.15 75.45-12.4L75.45-12.4ZM82.59-34.3L119.44-34.3 119.44-21.1 112.39-21.1 112.39-27.95 105.09-27.95 105.09-6.35 110.54-6.35 110.54 0 91.49 0 91.49-6.35 96.99-6.35 96.99-27.95 89.64-27.95 89.64-21.1 82.59-21.1 82.59-34.3Z" opacity="1" transform="matrix(1,0,0,1,0,0)" fill="#ffe700" class="undefined-text-0" data-fill-palette-color="primary" id="text-0"></path></svg></g></svg></g><g transform="matrix(1,0,0,1,0,90.60303283263947)"><svg viewBox="0 0 182.39999999999998 18.674862454942136" height="18.674862454942136" width="182.39999999999998"><g transform="matrix(1,0,0,1,0,0)"><svg width="182.39999999999998" viewBox="3 -39.04 386.03 39.53" height="18.674862454942136" data-palette-color="#ffffff"><path d="M37.99-25L37.99 0 31.01 0 31.01-25Q31.01-25.73 30.73-26.37 30.44-27 29.97-27.48 29.49-27.95 28.86-28.22 28.22-28.49 27.49-28.49L27.49-28.49Q26.76-28.49 26.12-28.22 25.49-27.95 25.01-27.48 24.54-27 24.27-26.37 24-25.73 24-25L24-25 24 0 16.99 0 16.99-25Q16.99-25.73 16.72-26.37 16.46-27 15.98-27.48 15.5-27.95 14.87-28.22 14.23-28.49 13.5-28.49L13.5-28.49Q12.77-28.49 12.13-28.22 11.5-27.95 11.02-27.48 10.55-27 10.28-26.37 10.01-25.73 10.01-25L10.01-25 10.01 0 3 0 3-25Q3-27.17 3.82-29.09 4.64-31.01 6.07-32.43 7.5-33.86 9.41-34.68 11.33-35.5 13.5-35.5L13.5-35.5Q15.45-35.5 17.26-34.8 19.07-34.11 20.51-32.79L20.51-32.79Q21.95-34.11 23.74-34.8 25.54-35.5 27.49-35.5L27.49-35.5Q29.66-35.5 31.58-34.68 33.5-33.86 34.92-32.43 36.35-31.01 37.17-29.09 37.99-27.17 37.99-25L37.99-25ZM51.39-33.25L51.39-33.25Q51.39-32.32 51.04-31.52 50.68-30.71 50.07-30.11 49.46-29.52 48.64-29.16 47.82-28.81 46.9-28.81L46.9-28.81Q45.97-28.81 45.15-29.16 44.33-29.52 43.74-30.11 43.14-30.71 42.78-31.52 42.43-32.32 42.43-33.25L42.43-33.25Q42.43-34.16 42.78-34.97 43.14-35.79 43.74-36.39 44.33-36.99 45.15-37.34 45.97-37.7 46.9-37.7L46.9-37.7Q47.82-37.7 48.64-37.34 49.46-36.99 50.07-36.39 50.68-35.79 51.04-34.97 51.39-34.16 51.39-33.25ZM50.24-26.15L50.24 0 43.53 0 43.53-26.15 50.24-26.15ZM61.98-14.94L61.98 0 55.32 0 55.32-26.15 56.93-26.15 59.13-23.61Q60.74-25.07 62.78-25.87 64.81-26.66 67.04-26.66L67.04-26.66Q69.43-26.66 71.55-25.74 73.68-24.83 75.26-23.23 76.85-21.63 77.77-19.49 78.68-17.36 78.68-14.94L78.68-14.94 78.68 0 72.02 0 72.02-14.94Q72.02-15.97 71.63-16.88 71.24-17.8 70.55-18.48 69.87-19.17 68.96-19.56 68.06-19.95 67.04-19.95L67.04-19.95Q65.99-19.95 65.06-19.56 64.13-19.17 63.45-18.48 62.76-17.8 62.37-16.88 61.98-15.97 61.98-14.94L61.98-14.94ZM106.32-21.46L93.82-6.4Q94.21-6.27 94.6-6.24 94.99-6.2 95.38-6.2L95.38-6.2Q96.35-6.2 97.26-6.47 98.16-6.74 98.95-7.24 99.75-7.74 100.37-8.46 100.99-9.18 101.38-10.06L101.38-10.06 106.27-5.15Q105.34-3.83 104.13-2.78 102.92-1.73 101.52-1 100.11-0.27 98.56 0.11 97.01 0.49 95.38 0.49L95.38 0.49Q92.62 0.49 90.19-0.54 87.76-1.56 85.94-3.39 84.12-5.22 83.07-7.75 82.02-10.28 82.02-13.31L82.02-13.31Q82.02-16.41 83.07-18.97 84.12-21.53 85.94-23.34 87.76-25.15 90.19-26.15 92.62-27.15 95.38-27.15L95.38-27.15Q97.01-27.15 98.58-26.76 100.14-26.37 101.54-25.63 102.95-24.9 104.17-23.84 105.39-22.78 106.32-21.46L106.32-21.46ZM89.47-9.84L97.23-20.14Q96.77-20.31 96.32-20.36 95.87-20.41 95.38-20.41L95.38-20.41Q94.01-20.41 92.8-19.91 91.59-19.41 90.7-18.48 89.81-17.55 89.3-16.25 88.79-14.94 88.79-13.31L88.79-13.31Q88.79-12.94 88.82-12.48 88.86-12.01 88.95-11.54 89.03-11.06 89.15-10.62 89.27-10.18 89.47-9.84L89.47-9.84ZM132.31-20.95L132.31-20.95 127.43-16.04Q127.07-17.07 126.43-17.88 125.8-18.7 125-19.26 124.21-19.82 123.28-20.12 122.35-20.41 121.38-20.41L121.38-20.41Q120.01-20.41 118.8-19.85 117.59-19.29 116.7-18.27 115.81-17.26 115.3-15.87 114.78-14.48 114.78-12.79L114.78-12.79Q114.78-11.43 115.3-10.23 115.81-9.03 116.7-8.13 117.59-7.23 118.8-6.71 120.01-6.2 121.38-6.2L121.38-6.2Q122.35-6.2 123.26-6.47 124.16-6.74 124.95-7.24 125.75-7.74 126.37-8.46 126.99-9.18 127.38-10.06L127.38-10.06 132.27-5.15Q131.34-3.83 130.13-2.78 128.92-1.73 127.52-1 126.11-0.27 124.56 0.11 123.01 0.49 121.38 0.49L121.38 0.49Q118.62 0.49 116.19-0.55 113.76-1.59 111.94-3.39 110.12-5.2 109.07-7.62 108.02-10.03 108.02-12.79L108.02-12.79Q108.02-15.8 109.07-18.41 110.12-21.02 111.94-22.96 113.76-24.9 116.19-26.03 118.62-27.15 121.38-27.15L121.38-27.15Q123.01-27.15 124.59-26.73 126.16-26.32 127.59-25.52 129.02-24.73 130.23-23.58 131.44-22.44 132.31-20.95ZM142.22-14.4L142.22 0 135.56 0 135.56-26.15 137.17-26.15 139.37-23.05Q140.98-24.51 143.03-25.31 145.08-26.1 147.28-26.1L147.28-26.1 153.16-26.1 153.16-19.46 147.28-19.46Q146.23-19.46 145.3-19.07 144.37-18.68 143.69-17.99 143.01-17.31 142.61-16.38 142.22-15.45 142.22-14.4L142.22-14.4ZM181.09-26.1L181.09 0 179.48 0 176.89-3.59Q175.94-2.73 174.88-1.99 173.81-1.25 172.64-0.7 171.47-0.15 170.24 0.17 169 0.49 167.73 0.49L167.73 0.49Q164.98 0.49 162.55-0.44 160.12-1.37 158.3-3.14 156.48-4.91 155.43-7.47 154.38-10.03 154.38-13.31L154.38-13.31Q154.38-16.36 155.43-18.91 156.48-21.46 158.3-23.29 160.12-25.12 162.55-26.14 164.98-27.15 167.73-27.15L167.73-27.15Q169-27.15 170.25-26.83 171.49-26.51 172.67-25.95 173.84-25.39 174.9-24.63 175.96-23.88 176.89-23L176.89-23 179.48-26.1 181.09-26.1ZM174.37-13.31L174.37-13.31Q174.37-14.67 173.85-15.95 173.32-17.24 172.42-18.23 171.52-19.21 170.31-19.81 169.1-20.41 167.73-20.41L167.73-20.41Q166.37-20.41 165.16-19.95 163.95-19.48 163.06-18.58 162.17-17.68 161.65-16.35 161.14-15.01 161.14-13.31L161.14-13.31Q161.14-11.6 161.65-10.27 162.17-8.94 163.06-8.03 163.95-7.13 165.16-6.67 166.37-6.2 167.73-6.2L167.73-6.2Q169.1-6.2 170.31-6.8 171.52-7.4 172.42-8.39 173.32-9.38 173.85-10.66 174.37-11.94 174.37-13.31ZM194.64-19.51L194.64 0 187.97 0 187.97-19.51 184.72-19.51 184.72-26.15 187.97-26.15 187.97-27.39Q187.97-29.81 188.89-31.93 189.8-34.06 191.4-35.63 193-37.21 195.12-38.12 197.25-39.04 199.67-39.04L199.67-39.04 204.67-39.04 204.67-32.4 199.67-32.4Q198.59-32.4 197.68-32.02 196.76-31.64 196.09-30.97 195.42-30.3 195.03-29.38 194.64-28.47 194.64-27.39L194.64-27.39 194.64-26.15 202.81-26.15 202.81-19.51 194.64-19.51ZM224.13 0L219.07 0Q216.65 0 214.53-0.92 212.41-1.83 210.81-3.43 209.21-5.03 208.29-7.15 207.38-9.28 207.38-11.69L207.38-11.69 207.38-19.46 204.13-19.46 204.13-26.1 207.38-26.1 207.38-36.55 214.02-36.55 214.02-26.1 224.13-26.1 224.13-19.46 214.02-19.46 214.02-11.69Q214.02-10.64 214.41-9.73 214.8-8.81 215.48-8.13 216.17-7.45 217.09-7.04 218.02-6.64 219.07-6.64L219.07-6.64 224.13-6.64 224.13 0ZM240.5-24.51L240.5-24.51Q240.5-26.68 241.33-28.59 242.16-30.49 243.59-31.92 245.02-33.35 246.92-34.18 248.83-35.01 251-35.01L251-35.01 267.06-35.01 267.06-28 251-28Q250.27-28 249.63-27.73 249-27.47 248.52-26.99 248.05-26.51 247.78-25.88 247.51-25.24 247.51-24.51L247.51-24.51Q247.51-23.78 247.78-23.13 248.05-22.49 248.52-22.01 249-21.53 249.63-21.26 250.27-21 251-21L251-21 258.01-21Q260.18-21 262.1-20.18 264.01-19.36 265.44-17.93 266.87-16.5 267.69-14.59 268.51-12.67 268.51-10.5L268.51-10.5Q268.51-8.33 267.69-6.42 266.87-4.52 265.44-3.09 264.01-1.66 262.1-0.83 260.18 0 258.01 0L258.01 0 242.46 0 242.46-7.01 258.01-7.01Q258.74-7.01 259.37-7.28 260.01-7.54 260.49-8.02 260.96-8.5 261.23-9.13 261.5-9.77 261.5-10.5L261.5-10.5Q261.5-11.23 261.23-11.87 260.96-12.5 260.49-12.98 260.01-13.45 259.37-13.72 258.74-13.99 258.01-13.99L258.01-13.99 251-13.99Q248.83-13.99 246.92-14.82 245.02-15.65 243.59-17.08 242.16-18.51 241.33-20.42 240.5-22.34 240.5-24.51ZM295.29-21.46L282.79-6.4Q283.18-6.27 283.57-6.24 283.96-6.2 284.35-6.2L284.35-6.2Q285.32-6.2 286.23-6.47 287.13-6.74 287.92-7.24 288.72-7.74 289.34-8.46 289.96-9.18 290.35-10.06L290.35-10.06 295.24-5.15Q294.31-3.83 293.1-2.78 291.89-1.73 290.49-1 289.08-0.27 287.53 0.11 285.98 0.49 284.35 0.49L284.35 0.49Q281.59 0.49 279.16-0.54 276.73-1.56 274.91-3.39 273.09-5.22 272.04-7.75 270.99-10.28 270.99-13.31L270.99-13.31Q270.99-16.41 272.04-18.97 273.09-21.53 274.91-23.34 276.73-25.15 279.16-26.15 281.59-27.15 284.35-27.15L284.35-27.15Q285.98-27.15 287.55-26.76 289.11-26.37 290.51-25.63 291.92-24.9 293.14-23.84 294.36-22.78 295.29-21.46L295.29-21.46ZM278.44-9.84L286.2-20.14Q285.74-20.31 285.29-20.36 284.84-20.41 284.35-20.41L284.35-20.41Q282.98-20.41 281.77-19.91 280.56-19.41 279.67-18.48 278.78-17.55 278.27-16.25 277.76-14.94 277.76-13.31L277.76-13.31Q277.76-12.94 277.79-12.48 277.83-12.01 277.91-11.54 278-11.06 278.12-10.62 278.24-10.18 278.44-9.84L278.44-9.84ZM305.29-14.4L305.29 0 298.63 0 298.63-26.15 300.24-26.15 302.44-23.05Q304.05-24.51 306.1-25.31 308.15-26.1 310.35-26.1L310.35-26.1 316.23-26.1 316.23-19.46 310.35-19.46Q309.3-19.46 308.37-19.07 307.44-18.68 306.76-17.99 306.07-17.31 305.68-16.38 305.29-15.45 305.29-14.4L305.29-14.4ZM333.44 0L326.75 0 316.79-26.15 324.38-26.15 330.09-9.84 335.78-26.15 343.4-26.15 333.44 0ZM368.08-21.46L355.58-6.4Q355.97-6.27 356.36-6.24 356.75-6.2 357.14-6.2L357.14-6.2Q358.12-6.2 359.02-6.47 359.93-6.74 360.72-7.24 361.51-7.74 362.14-8.46 362.76-9.18 363.15-10.06L363.15-10.06 368.03-5.15Q367.1-3.83 365.9-2.78 364.69-1.73 363.28-1 361.88-0.27 360.33 0.11 358.78 0.49 357.14 0.49L357.14 0.49Q354.38 0.49 351.95-0.54 349.53-1.56 347.71-3.39 345.89-5.22 344.84-7.75 343.79-10.28 343.79-13.31L343.79-13.31Q343.79-16.41 344.84-18.97 345.89-21.53 347.71-23.34 349.53-25.15 351.95-26.15 354.38-27.15 357.14-27.15L357.14-27.15Q358.78-27.15 360.34-26.76 361.9-26.37 363.31-25.63 364.71-24.9 365.93-23.84 367.15-22.78 368.08-21.46L368.08-21.46ZM351.23-9.84L359-20.14Q358.53-20.31 358.08-20.36 357.63-20.41 357.14-20.41L357.14-20.41Q355.78-20.41 354.57-19.91 353.36-19.41 352.47-18.48 351.58-17.55 351.06-16.25 350.55-14.94 350.55-13.31L350.55-13.31Q350.55-12.94 350.59-12.48 350.62-12.01 350.71-11.54 350.8-11.06 350.92-10.62 351.04-10.18 351.23-9.84L351.23-9.84ZM378.09-14.4L378.09 0 371.42 0 371.42-26.15 373.03-26.15 375.23-23.05Q376.84-24.51 378.89-25.31 380.94-26.1 383.14-26.1L383.14-26.1 389.03-26.1 389.03-19.46 383.14-19.46Q382.09-19.46 381.16-19.07 380.24-18.68 379.55-17.99 378.87-17.31 378.48-16.38 378.09-15.45 378.09-14.4L378.09-14.4Z" opacity="1" transform="matrix(1,0,0,1,0,0)" fill="#ffffff" class="undefined-text-1" data-fill-palette-color="secondary" id="text-1"></path></svg></g></svg></g></svg></g></svg></g><g transform="matrix(1,0,0,1,0,2.578627643790796)"><svg viewBox="0 0 104.12064000000001 104.12064000000001" height="104.12064000000001" width="104.12064000000001"><g><svg></svg></g><g id="icon-0"><svg viewBox="0 0 104.12064000000001 104.12064000000001" height="104.12064000000001" width="104.12064000000001"><g><rect width="94.672656" height="94.672656" x="4.723992000000003" y="4.723992000000003" fill="#ffffff" data-fill-palette-color="accent"></rect><rect width="94.672656" height="94.672656" x="9.447984000000002" y="2.6645352591003757e-15" fill="#ffffff" opacity="0.5" data-fill-palette-color="accent"></rect></g><g transform="matrix(1,0,0,1,13.497120000000002,13.497120000000002)"><svg viewBox="0 0 77.1264 77.1264" height="77.1264" width="77.1264"><g><svg xmlns="http://www.w3.org/2000/svg" xmlns:xlink="http://www.w3.org/1999/xlink" version="1.1" x="0" y="0" viewBox="1 1 62 62" style="enable-background:new 0 0 64 64;" xml:space="preserve" height="77.1264" width="77.1264" class="icon-g$-0" data-fill-palette-color="background" id="g$-0"><g fill="#071f58" data-fill-palette-color="background"><path d="M59 9V5h-4V1H1v54h4v4h4v4h54V9H59zM61 17H11v-6h50V17zM3 53V3h50v2H5v48H3zM7 57V7h50v2H9v48H7zM11 61V19h50v42H11z" fill="#071f58" data-fill-palette-color="background"></path><rect x="13" y="13" width="2" height="2" fill="#071f58" data-fill-palette-color="background"></rect><rect x="17" y="13" width="2" height="2" fill="#071f58" data-fill-palette-color="background"></rect><rect x="21" y="13" width="2" height="2" fill="#071f58" data-fill-palette-color="background"></rect><path d="M13 41h4v4h3.813c0.25 0.762 0.554 1.499 0.91 2.205l-2.694 2.694 7.071 7.071 2.694-2.694c0.706 0.355 1.444 0.66 2.206 0.91V59h10v-3.813c0.762-0.25 1.5-0.555 2.206-0.91l2.694 2.694 7.071-7.071-2.694-2.694c0.356-0.706 0.66-1.443 0.91-2.205H55v-4h4v-2H13V41zM53 43h-3.317l-0.203 0.733c-0.308 1.116-0.747 2.179-1.305 3.16l-0.376 0.662 2.343 2.344-4.243 4.243-2.343-2.344-0.662 0.377c-0.981 0.557-2.045 0.996-3.161 1.305L39 53.684V57h-6v-3.316l-0.733-0.203c-1.116-0.309-2.18-0.748-3.161-1.305l-0.662-0.377-2.343 2.344-4.243-4.243 2.343-2.344-0.376-0.662c-0.558-0.981-0.997-2.044-1.305-3.16L22.317 43H19v-2h8.059c0.5 4.493 4.317 8 8.941 8s8.442-3.507 8.941-8H53V43zM29.08 41h13.84c-0.488 3.386-3.401 6-6.92 6S29.568 44.386 29.08 41z" fill="#071f58" data-fill-palette-color="background"></path><polygon points="28.707,35.293 22.414,29 28.707,22.707 27.293,21.293 19.586,29 27.293,36.707  " fill="#071f58" data-fill-palette-color="background"></polygon><polygon points="44.707,36.707 52.414,29 44.707,21.293 43.293,22.707 49.586,29 43.293,35.293  " fill="#071f58" data-fill-palette-color="background"></polygon><rect x="27.398" y="28" transform="matrix(0.581 -0.8139 0.8139 0.581 -8.5193 41.4511)" width="17.205" height="2" fill="#071f58" data-fill-palette-color="background"></rect></g></svg></g></svg></g></svg></g></svg></g></svg></g></svg></g></svg></g><defs></defs></svg><rect width="320" height="360" fill="none" stroke="none" visibility="hidden"></rect></g></svg></g></svg>